# This file uses meters as units for non-parametric coordinates.

mtllib Tubería Low.mtl
g default
v 31.846523 -4.907990 -298.318573
v 27.090271 -4.907990 -307.653259
v 19.682232 -4.907990 -315.061279
v 10.347561 -4.907990 -319.817474
v 0.000000 -4.907990 -321.456421
v -10.347561 -4.907990 -319.817474
v -19.682228 -4.907990 -315.061279
v -27.090260 -4.907990 -307.653259
v -31.846508 -4.907990 -298.318573
v -33.485405 -4.907990 -287.971008
v -31.846508 -4.907990 -277.623444
v -27.090260 -4.907990 -268.288788
v -19.682224 -4.907990 -260.880768
v -10.347557 -4.907990 -256.124512
v -0.000001 -4.907990 -254.485596
v 10.347553 -4.907990 -256.124512
v 19.682220 -4.907990 -260.880768
v 27.090252 -4.907990 -268.288788
v 31.846500 -4.907990 -277.623444
v 33.485397 -4.907990 -287.971008
v 31.846523 630.307190 -298.318573
v 27.090275 630.307190 -307.653259
v 19.682232 630.307190 -315.061279
v 10.347561 630.307190 -319.817474
v 0.000000 630.307190 -321.456421
v -10.347561 630.307190 -319.817474
v -19.682232 630.307190 -315.061279
v -27.090260 630.307190 -307.653259
v -31.846516 630.307190 -298.318573
v -33.485405 630.307190 -287.971008
v -31.846516 630.307190 -277.623444
v -27.090260 630.307190 -268.288788
v -19.682228 630.307190 -260.880768
v -10.347557 630.307190 -256.124512
v -0.000001 630.307190 -254.485596
v 10.347553 630.307190 -256.124512
v 19.682224 630.307190 -260.880768
v 27.090252 630.307190 -268.288788
v 31.846508 630.307190 -277.623444
v 33.485397 630.307190 -287.971008
v 31.846523 582.282837 -298.318573
v 33.485397 582.282837 -287.971008
v 31.846508 582.282837 -277.623444
v 27.090252 582.282837 -268.288788
v 19.682224 582.282837 -260.880768
v 10.347553 582.282837 -256.124512
v -0.000001 582.282837 -254.485596
v -10.347557 582.282837 -256.124512
v -19.682228 582.282837 -260.880768
v -27.090260 582.282837 -268.288788
v -31.846516 582.282837 -277.623444
v -33.485405 582.282837 -287.971008
v -31.846516 582.282837 -298.318573
v -27.090260 582.282837 -307.653259
v -19.682232 582.282837 -315.061279
v -10.347561 582.282837 -319.817474
v 0.000000 582.282837 -321.456421
v 10.347561 582.282837 -319.817474
v 19.682232 582.282837 -315.061279
v 27.090275 582.282837 -307.653259
v 40.132385 593.896729 -301.010834
v 42.197662 593.896729 -287.971008
v 40.132355 593.896729 -274.931183
v 34.138626 593.896729 -263.167847
v 24.803162 593.896729 -253.832367
v 13.039791 593.896729 -247.838623
v -0.000000 593.896729 -245.773346
v -13.039795 593.896729 -247.838623
v -24.803162 593.896729 -253.832367
v -34.138626 593.896729 -263.167847
v -40.132362 593.896729 -274.931183
v -42.197670 593.896729 -287.971008
v -40.132362 593.896729 -301.010834
v -34.138626 593.896729 -312.774170
v -24.803169 593.896729 -322.109558
v -13.039799 593.896729 -328.103424
v 0.000001 593.896729 -330.168671
v 13.039801 593.896729 -328.103424
v 24.803177 593.896729 -322.109558
v 34.138649 593.896729 -312.774170
v 26.546150 615.983582 -296.596344
v 22.581505 615.983582 -304.377441
v -0.000001 615.983582 -287.971008
v 16.406422 615.983582 -310.552490
v 8.625364 615.983582 -314.517151
v -0.000001 615.983582 -315.883301
v -8.625366 615.983582 -314.517151
v -16.406422 615.983582 -310.552490
v -22.581493 615.983582 -304.377441
v -26.546146 615.983582 -296.596344
v -27.912258 615.983582 -287.971008
v -26.546146 615.983582 -279.345642
v -22.581493 615.983582 -271.564575
v -16.406418 615.983582 -265.389526
v -8.625364 615.983582 -261.424866
v -0.000001 615.983582 -260.058777
v 8.625359 615.983582 -261.424866
v 16.406414 615.983582 -265.389526
v 22.581486 615.983582 -271.564575
v 26.546139 615.983582 -279.345642
v 27.912251 615.983582 -287.971008
v 38.475388 631.145752 -300.472412
v 40.132385 629.621704 -301.010834
v 42.197662 629.621704 -287.971008
v 40.455391 631.145752 -287.971008
v 40.132355 629.621704 -274.931183
v 38.475365 631.145752 -275.469543
v 34.138626 629.621704 -263.167847
v 32.729095 631.145752 -264.191925
v 24.803162 629.621704 -253.832367
v 23.779079 631.145752 -255.241913
v 13.039793 629.621704 -247.838623
v 12.501400 631.145752 -249.495636
v -0.000000 629.621704 -245.773346
v -0.000000 631.145752 -247.515625
v -13.039795 629.621704 -247.838623
v -12.501402 631.145752 -249.495636
v -24.803162 629.621704 -253.832367
v -23.779079 631.145752 -255.241913
v -34.138626 629.621704 -263.167847
v -32.729103 631.145752 -264.191925
v -40.132362 629.621704 -274.931183
v -38.475372 631.145752 -275.469543
v -42.197670 629.621704 -287.971008
v -40.455399 631.145752 -287.971008
v -40.132362 629.621704 -301.010834
v -38.475372 631.145752 -300.472412
v -34.138626 629.621704 -312.774170
v -32.729095 631.145752 -311.750092
v -24.803169 629.621704 -322.109558
v -23.779087 631.145752 -320.700104
v -13.039799 629.621704 -328.103424
v -12.501406 631.145752 -326.446350
v 0.000001 629.621704 -330.168671
v 0.000001 631.145752 -328.426331
v 13.039801 629.621704 -328.103424
v 12.501406 631.145752 -326.446350
v 24.803177 629.621704 -322.109558
v 23.779095 631.145752 -320.700104
v 34.138649 629.621704 -312.774170
v 32.729118 631.145752 -311.750092
vt 0.071489 0.000009
vt 0.089331 0.000011
vt 0.089208 0.999998
vt 0.071366 0.999996
vt 0.107172 0.000013
vt 0.107049 1.000000
vt 0.053647 0.000007
vt 0.053525 0.999993
vt 0.035806 0.000005
vt 0.035683 0.999991
vt 0.017964 0.000002
vt 0.017842 0.999989
vt 0.000123 0.000000
vt 0.000000 0.999987
vt 0.126752 0.000004
vt 0.144593 0.000003
vt 0.144637 0.999990
vt 0.126795 0.999991
vt 0.162435 0.000003
vt 0.162478 0.999989
vt 0.108910 0.000005
vt 0.108953 0.999991
vt 0.180276 0.000002
vt 0.180320 0.999988
vt 0.198118 0.000001
vt 0.198161 0.999988
vt 0.215959 0.000000
vt 0.216003 0.999987
vt 0.757212 0.000540
vt 0.779695 0.000360
vt 0.780182 0.061198
vt 0.757700 0.061378
vt 0.802178 0.000180
vt 0.802665 0.061018
vt 0.734729 0.000721
vt 0.735217 0.061558
vt 0.824661 0.000000
vt 0.825148 0.060838
vt 0.712246 0.000901
vt 0.712734 0.061738
vt 0.689764 0.001081
vt 0.690251 0.061919
vt 0.917651 0.000015
vt 0.940134 0.000008
vt 0.940155 0.060848
vt 0.917671 0.060855
vt 0.962618 0.000000
vt 0.962638 0.060840
vt 0.895167 0.000023
vt 0.895187 0.060863
vt 0.872683 0.000031
vt 0.872704 0.060870
vt 0.850200 0.000038
vt 0.850220 0.060878
vt 0.827716 0.000046
vt 0.827737 0.060885
vt 0.465977 0.122720
vt 0.452785 0.126896
vt 0.446198 0.083165
vt 0.477216 0.144028
vt 0.456890 0.150634
vt 0.438949 0.126791
vt 0.477232 0.114672
vt 0.482615 0.154620
vt 0.458751 0.162376
vt 0.435517 0.150636
vt 0.494506 0.131464
vt 0.425822 0.122416
vt 0.485450 0.103540
vt 0.502914 0.139869
vt 0.484428 0.158185
vt 0.459373 0.166327
vt 0.433659 0.162378
vt 0.415189 0.144033
vt 0.507067 0.114171
vt 0.414690 0.114198
vt 0.489824 0.090413
vt 0.517661 0.119566
vt 0.505740 0.142699
vt 0.433030 0.166328
vt 0.409794 0.154626
vt 0.397897 0.131472
vt 0.513670 0.093844
vt 0.406642 0.102943
vt 0.489929 0.076576
vt 0.525412 0.095700
vt 0.521224 0.121385
vt 0.407975 0.158189
vt 0.389493 0.139879
vt 0.385334 0.114182
vt 0.513667 0.072471
vt 0.402466 0.089752
vt 0.485752 0.063385
vt 0.525408 0.070608
vt 0.529362 0.096329
vt 0.386662 0.142705
vt 0.374742 0.119581
vt 0.378727 0.093856
vt 0.507060 0.052145
vt 0.402571 0.075916
vt 0.477704 0.052130
vt 0.517651 0.046745
vt 0.529359 0.069985
vt 0.371177 0.121394
vt 0.366986 0.095718
vt 0.378726 0.072484
vt 0.494495 0.034855
vt 0.406946 0.062789
vt 0.466572 0.043913
vt 0.502899 0.026447
vt 0.521216 0.044931
vt 0.363035 0.096340
vt 0.366983 0.070626
vt 0.385328 0.052157
vt 0.477203 0.022295
vt 0.415163 0.051657
vt 0.453445 0.039538
vt 0.482598 0.011701
vt 0.505730 0.023621
vt 0.363033 0.069997
vt 0.374735 0.046762
vt 0.397889 0.034865
vt 0.456876 0.015693
vt 0.426418 0.043609
vt 0.439609 0.039433
vt 0.458733 0.003950
vt 0.484416 0.008139
vt 0.371172 0.044943
vt 0.389481 0.026461
vt 0.415178 0.022301
vt 0.435504 0.015695
vt 0.433641 0.003953
vt 0.459362 0.000000
vt 0.386655 0.023630
vt 0.409779 0.011710
vt 0.433019 0.000002
vt 0.407966 0.008145
vt 0.634707 0.129453
vt 0.648935 0.119201
vt 0.666306 0.136263
vt 0.645951 0.151050
vt 0.659298 0.105052
vt 0.681093 0.115904
vt 0.618007 0.134805
vt 0.622028 0.158818
vt 0.664781 0.088392
vt 0.688862 0.091977
vt 0.600467 0.134740
vt 0.596882 0.158820
vt 0.664846 0.070855
vt 0.688857 0.066817
vt 0.583808 0.129257
vt 0.572955 0.151052
vt 0.659487 0.054157
vt 0.681072 0.042893
vt 0.569660 0.118894
vt 0.552600 0.136267
vt 0.649230 0.039934
vt 0.666276 0.022553
vt 0.559407 0.104665
vt 0.537817 0.115918
vt 0.635077 0.029576
vt 0.645935 0.007784
vt 0.554047 0.087965
vt 0.530039 0.092006
vt 0.618422 0.024087
vt 0.622023 0.000006
vt 0.554112 0.070428
vt 0.530029 0.066849
vt 0.600886 0.024015
vt 0.596867 0.000000
vt 0.559594 0.053769
vt 0.537798 0.042917
vt 0.584186 0.029367
vt 0.572938 0.007774
vt 0.569957 0.039621
vt 0.552586 0.022561
vt 0.361903 0.999987
vt 0.344062 0.999989
vt 0.343951 0.000002
vt 0.361793 0.000000
vt 0.326220 0.999991
vt 0.326110 0.000004
vt 0.308378 0.999993
vt 0.308268 0.000006
vt 0.290537 0.999995
vt 0.290427 0.000008
vt 0.217820 0.000008
vt 0.235662 0.000006
vt 0.235772 0.999993
vt 0.217930 0.999995
vt 0.253503 0.000004
vt 0.253613 0.999991
vt 0.271345 0.000002
vt 0.271455 0.999989
vt 0.289186 0.000000
vt 0.289297 0.999987
vt 0.884276 0.060891
vt 0.906760 0.060886
vt 0.906772 0.121726
vt 0.884289 0.121731
vt 0.861792 0.060896
vt 0.861805 0.121735
vt 0.839309 0.060900
vt 0.839322 0.121740
vt 0.816825 0.060905
vt 0.816838 0.121745
vt 0.930080 0.121694
vt 0.907596 0.121699
vt 0.907584 0.060859
vt 0.930067 0.060855
vt 0.952564 0.121690
vt 0.952551 0.060850
vt 0.975047 0.121685
vt 0.975034 0.060845
vt 0.997531 0.121680
vt 0.997518 0.060840
vn 0.951057 0.000000 -0.309016
vn 0.809017 -0.000000 -0.587786
vn 0.808895 -0.017357 -0.587697
vn 0.950914 -0.017357 -0.308969
vn 0.587783 -0.000000 -0.809019
vn 0.587694 -0.017357 -0.808897
vn 0.309017 0.000000 -0.951056
vn 0.308971 -0.017357 -0.950913
vn 0.000000 0.000000 -1.000000
vn 0.000000 -0.017357 -0.999849
vn -0.309017 -0.000000 -0.951056
vn -0.308971 -0.017357 -0.950913
vn -0.587783 -0.000000 -0.809018
vn -0.587695 -0.017357 -0.808896
vn -0.809017 -0.000000 -0.587785
vn -0.808895 -0.017357 -0.587697
vn -0.951057 -0.000000 -0.309017
vn -0.950913 -0.017357 -0.308970
vn -1.000000 -0.000000 0.000000
vn -0.999849 -0.017357 0.000000
vn -0.951057 -0.000000 0.309017
vn -0.950913 -0.017357 0.308971
vn -0.809017 -0.000000 0.587785
vn -0.808895 -0.017357 0.587697
vn -0.587785 -0.000000 0.809017
vn -0.587696 -0.017357 0.808895
vn -0.309018 -0.000000 0.951056
vn -0.308972 -0.017357 0.950913
vn 0.000000 0.000000 1.000000
vn 0.000000 -0.017357 0.999849
vn 0.309018 -0.000000 0.951056
vn 0.308972 -0.017357 0.950913
vn 0.587785 -0.000000 0.809017
vn 0.587697 -0.017357 0.808895
vn 0.809017 -0.000000 0.587785
vn 0.808895 -0.017357 0.587697
vn 0.951057 -0.000000 0.309017
vn 0.950913 -0.017357 0.308971
vn 1.000000 -0.000000 0.000001
vn 0.999849 -0.017357 0.000001
vn -0.621414 0.757019 0.201907
vn -0.528607 0.757019 0.384053
vn 0.000000 1.000000 0.000000
vn -0.384052 0.757018 0.528609
vn -0.201910 0.757018 0.621415
vn -0.000000 0.757018 0.653394
vn 0.201910 0.757019 0.621414
vn 0.384053 0.757020 0.528606
vn 0.528607 0.757019 0.384055
vn 0.621413 0.757019 0.201909
vn 0.653392 0.757019 0.000000
vn 0.621414 0.757019 -0.201910
vn 0.528606 0.757018 -0.384056
vn 0.384055 0.757019 -0.528606
vn 0.201909 0.757018 -0.621415
vn 0.000000 0.757020 -0.653392
vn -0.201909 0.757018 -0.621414
vn -0.384055 0.757018 -0.528607
vn -0.528607 0.757018 -0.384055
vn -0.621414 0.757019 -0.201908
vn -0.653392 0.757019 0.000003
vn 0.938910 -0.159315 -0.305069
vn 0.987228 -0.159315 0.000001
vn 0.938909 -0.159315 0.305070
vn 0.798684 -0.159315 0.580278
vn 0.580279 -0.159315 0.798683
vn 0.305070 -0.159315 0.938910
vn -0.000000 -0.159315 0.987228
vn -0.305070 -0.159315 0.938910
vn -0.580279 -0.159315 0.798683
vn -0.798684 -0.159315 0.580278
vn -0.938910 -0.159315 0.305070
vn -0.987228 -0.159315 0.000000
vn -0.938910 -0.159315 -0.305070
vn -0.798683 -0.159314 -0.580279
vn -0.580279 -0.159315 -0.798683
vn -0.305072 -0.159315 -0.938909
vn 0.000000 -0.159316 -0.987228
vn 0.305072 -0.159315 -0.938909
vn 0.580278 -0.159315 -0.798684
vn 0.798683 -0.159315 -0.580280
vn -0.679686 0.699468 0.220844
vn -0.578175 0.699467 0.420070
vn -0.420066 0.699466 0.578179
vn -0.220845 0.699464 0.679689
vn -0.000000 0.699467 0.714665
vn 0.220845 0.699465 0.679688
vn 0.420067 0.699468 0.578177
vn 0.578176 0.699467 0.420070
vn 0.679686 0.699467 0.220845
vn 0.714664 0.699468 0.000001
vn 0.679686 0.699468 -0.220843
vn 0.578176 0.699467 -0.420070
vn 0.420069 0.699468 -0.578175
vn 0.220843 0.699467 -0.679686
vn 0.000000 0.699468 -0.714664
vn -0.220843 0.699469 -0.679685
vn -0.420069 0.699468 -0.578175
vn -0.578176 0.699467 -0.420070
vn -0.679686 0.699468 -0.220844
vn -0.714664 0.699468 0.000001
vn 0.121272 0.991837 -0.039402
vn 0.950198 0.042492 -0.308737
vn 0.808285 0.042492 -0.587256
vn 0.103160 0.991837 -0.074949
vn 0.127512 0.991837 0.000001
vn 0.999097 0.042492 0.000001
vn 0.121272 0.991837 0.039404
vn 0.950198 0.042492 0.308738
vn 0.103160 0.991837 0.074947
vn 0.808286 0.042492 0.587254
vn 0.074950 0.991837 0.103160
vn 0.587255 0.042492 0.808286
vn 0.039403 0.991837 0.121274
vn 0.308737 0.042492 0.950198
vn -0.000000 0.991837 0.127510
vn -0.000000 0.042492 0.999097
vn -0.039403 0.991837 0.121273
vn -0.308737 0.042492 0.950198
vn -0.074950 0.991837 0.103162
vn -0.587255 0.042492 0.808286
vn -0.103159 0.991837 0.074951
vn -0.808286 0.042492 0.587255
vn -0.121272 0.991837 0.039405
vn -0.950197 0.042492 0.308738
vn -0.127513 0.991837 0.000002
vn -0.999097 0.042492 -0.000000
vn -0.121272 0.991837 -0.039402
vn -0.950197 0.042492 -0.308738
vn -0.103160 0.991837 -0.074948
vn -0.808286 0.042492 -0.587256
vn -0.074951 0.991837 -0.103160
vn -0.587256 0.042492 -0.808285
vn -0.039403 0.991837 -0.121273
vn -0.308740 0.042493 -0.950197
vn 0.000000 0.991837 -0.127511
vn 0.000000 0.042494 -0.999097
vn 0.039403 0.991837 -0.121271
vn 0.308740 0.042493 -0.950197
vn 0.074950 0.991837 -0.103158
vn 0.587255 0.042492 -0.808286
s 1
g Tubería
usemtl initialShadingGroup
f 1/1/1 2/2/2 60/3/3 41/4/4
f 2/2/2 3/5/5 59/6/6 60/3/3
f 3/178/5 4/179/7 58/180/8 59/181/6
f 4/179/7 5/182/9 57/183/10 58/180/8
f 5/182/9 6/184/11 56/185/12 57/183/10
f 6/184/11 7/186/13 55/187/14 56/185/12
f 7/21/13 8/15/15 54/18/16 55/22/14
f 8/15/15 9/16/17 53/17/18 54/18/16
f 9/16/17 10/19/19 52/20/20 53/17/18
f 10/19/19 11/23/21 51/24/22 52/20/20
f 11/23/21 12/25/23 50/26/24 51/24/22
f 12/25/23 13/27/25 49/28/26 50/26/24
f 13/188/25 14/189/27 48/190/28 49/191/26
f 14/189/27 15/192/29 47/193/30 48/190/28
f 15/192/29 16/194/31 46/195/32 47/193/30
f 16/194/31 17/196/33 45/197/34 46/195/32
f 17/13/33 18/11/35 44/12/36 45/14/34
f 18/11/35 19/9/37 43/10/38 44/12/36
f 19/9/37 20/7/39 42/8/40 43/10/38
f 20/7/39 1/1/1 41/4/4 42/8/40
f 81/57/41 82/58/42 83/59/43
f 82/58/42 84/62/44 83/59/43
f 84/62/44 85/68/45 83/59/43
f 85/68/45 86/76/46 83/59/43
f 86/76/46 87/84/47 83/59/43
f 87/84/47 88/92/48 83/59/43
f 88/92/48 89/100/49 83/59/43
f 89/100/49 90/108/50 83/59/43
f 90/108/50 91/116/51 83/59/43
f 91/116/51 92/124/52 83/59/43
f 92/124/52 93/125/53 83/59/43
f 93/125/53 94/117/54 83/59/43
f 94/117/54 95/109/55 83/59/43
f 95/109/55 96/101/56 83/59/43
f 96/101/56 97/93/57 83/59/43
f 97/93/57 98/85/58 83/59/43
f 98/85/58 99/77/59 83/59/43
f 99/77/59 100/69/60 83/59/43
f 100/69/60 101/63/61 83/59/43
f 101/63/61 81/57/41 83/59/43
f 42/138/40 41/139/4 61/140/62 62/141/63
f 43/144/38 42/138/40 62/141/63 63/145/64
f 44/148/36 43/144/38 63/145/64 64/149/65
f 45/152/34 44/148/36 64/149/65 65/153/66
f 46/156/32 45/152/34 65/153/66 66/157/67
f 47/160/30 46/156/32 66/157/67 67/161/68
f 48/164/28 47/160/30 67/161/68 68/165/69
f 49/168/26 48/164/28 68/165/69 69/169/70
f 50/172/24 49/168/26 69/169/70 70/173/71
f 51/176/22 50/172/24 70/173/71 71/177/72
f 52/174/20 51/176/22 71/177/72 72/175/73
f 53/170/18 52/174/20 72/175/73 73/171/74
f 54/166/16 53/170/18 73/171/74 74/167/75
f 55/162/14 54/166/16 74/167/75 75/163/76
f 56/158/12 55/162/14 75/163/76 76/159/77
f 57/154/10 56/158/12 76/159/77 77/155/78
f 58/150/8 57/154/10 77/155/78 78/151/79
f 59/146/6 58/150/8 78/151/79 79/147/80
f 60/142/3 59/146/6 79/147/80 80/143/81
f 41/139/4 60/142/3 80/143/81 61/140/62
f 21/60/82 22/61/83 82/58/42 81/57/41
f 22/61/83 23/66/84 84/62/44 82/58/42
f 23/66/84 24/74/85 85/68/45 84/62/44
f 24/74/85 25/82/86 86/76/46 85/68/45
f 25/82/86 26/90/87 87/84/47 86/76/46
f 26/90/87 27/98/88 88/92/48 87/84/47
f 27/98/88 28/106/89 89/100/49 88/92/48
f 28/106/89 29/114/90 90/108/50 89/100/49
f 29/114/90 30/122/91 91/116/51 90/108/50
f 30/122/91 31/130/92 92/124/52 91/116/51
f 31/130/92 32/131/93 93/125/53 92/124/52
f 32/131/93 33/123/94 94/117/54 93/125/53
f 33/123/94 34/115/95 95/109/55 94/117/54
f 34/115/95 35/107/96 96/101/56 95/109/55
f 35/107/96 36/99/97 97/93/57 96/101/56
f 36/99/97 37/91/98 98/85/58 97/93/57
f 37/91/98 38/83/99 99/77/59 98/85/58
f 38/83/99 39/75/100 100/69/60 99/77/59
f 39/75/100 40/67/101 101/63/61 100/69/60
f 40/67/101 21/60/82 81/57/41 101/63/61
f 102/64/102 103/71/103 140/72/104 141/65/105
f 103/71/103 102/64/102 105/70/106 104/79/107
f 104/79/107 105/70/106 107/78/108 106/87/109
f 106/87/109 107/78/108 109/86/110 108/95/111
f 108/95/111 109/86/110 111/94/112 110/103/113
f 110/103/113 111/94/112 113/102/114 112/111/115
f 112/111/115 113/102/114 115/110/116 114/119/117
f 114/119/117 115/110/116 117/118/118 116/127/119
f 116/127/119 117/118/118 119/126/120 118/133/121
f 118/133/121 119/126/120 121/132/122 120/136/123
f 120/136/123 121/132/122 123/135/124 122/137/125
f 122/137/125 123/135/124 125/129/126 124/134/127
f 124/134/127 125/129/126 127/121/128 126/128/129
f 126/128/129 127/121/128 129/113/130 128/120/131
f 128/120/131 129/113/130 131/105/132 130/112/133
f 130/112/133 131/105/132 133/97/134 132/104/135
f 132/104/135 133/97/134 135/89/136 134/96/137
f 134/96/137 135/89/136 137/81/138 136/88/139
f 136/88/139 137/81/138 139/73/140 138/80/141
f 138/80/141 139/73/140 141/65/105 140/72/104
f 62/29/63 61/30/62 103/31/103 104/32/107
f 63/35/64 62/29/63 104/32/107 106/36/109
f 64/39/65 63/35/64 106/36/109 108/40/111
f 65/41/66 64/39/65 108/40/111 110/42/113
f 66/198/67 65/199/66 110/200/113 112/201/115
f 67/202/68 66/198/67 112/201/115 114/203/117
f 68/204/69 67/202/68 114/203/117 116/205/119
f 69/206/70 68/204/69 116/205/119 118/207/121
f 70/44/71 69/47/70 118/48/121 120/45/123
f 71/43/72 70/44/71 120/45/123 122/46/125
f 72/49/73 71/43/72 122/46/125 124/50/127
f 73/51/74 72/49/73 124/50/127 126/52/129
f 74/53/75 73/51/74 126/52/129 128/54/131
f 75/55/76 74/53/75 128/54/131 130/56/133
f 76/208/77 75/209/76 130/210/133 132/211/135
f 77/212/78 76/208/77 132/211/135 134/213/137
f 78/214/79 77/212/78 134/213/137 136/215/139
f 79/216/80 78/214/79 136/215/139 138/217/141
f 80/33/81 79/37/80 138/38/141 140/34/104
f 61/30/62 80/33/81 140/34/104 103/31/103
f 21/60/82 40/67/101 105/70/106 102/64/102
f 40/67/101 39/75/100 107/78/108 105/70/106
f 39/75/100 38/83/99 109/86/110 107/78/108
f 38/83/99 37/91/98 111/94/112 109/86/110
f 37/91/98 36/99/97 113/102/114 111/94/112
f 36/99/97 35/107/96 115/110/116 113/102/114
f 35/107/96 34/115/95 117/118/118 115/110/116
f 34/115/95 33/123/94 119/126/120 117/118/118
f 33/123/94 32/131/93 121/132/122 119/126/120
f 32/131/93 31/130/92 123/135/124 121/132/122
f 31/130/92 30/122/91 125/129/126 123/135/124
f 30/122/91 29/114/90 127/121/128 125/129/126
f 29/114/90 28/106/89 129/113/130 127/121/128
f 28/106/89 27/98/88 131/105/132 129/113/130
f 27/98/88 26/90/87 133/97/134 131/105/132
f 26/90/87 25/82/86 135/89/136 133/97/134
f 25/82/86 24/74/85 137/81/138 135/89/136
f 24/74/85 23/66/84 139/73/140 137/81/138
f 23/66/84 22/61/83 141/65/105 139/73/140
f 22/61/83 21/60/82 102/64/102 141/65/105
