# This file uses meters as units for non-parametric coordinates.

mtllib Tubería Low.mtl
g default
v 31.846525 -86.256791 -298.318581
v 27.090270 -86.256791 -307.653247
v 19.682232 -86.256791 -315.061297
v 10.347560 -86.256791 -319.817473
v 0.000000 -86.256791 -321.456426
v -10.347560 -86.256791 -319.817473
v -19.682228 -86.256791 -315.061297
v -27.090259 -86.256791 -307.653247
v -31.846510 -86.256791 -298.318581
v -33.485401 -86.256791 -287.971014
v -31.846510 -86.256791 -277.623448
v -27.090259 -86.256791 -268.288802
v -19.682225 -86.256791 -260.880773
v -10.347557 -86.256791 -256.124515
v -0.000001 -86.256791 -254.485603
v 10.347554 -86.256791 -256.124515
v 19.682221 -86.256791 -260.880773
v 27.090252 -86.256791 -268.288802
v 31.846502 -86.256791 -277.623448
v 33.485394 -86.256791 -287.971014
v 31.846525 548.958423 -298.318581
v 27.090275 548.958423 -307.653247
v 19.682232 548.958423 -315.061297
v 10.347560 548.958423 -319.817473
v 0.000000 548.958423 -321.456426
v -10.347560 548.958423 -319.817473
v -19.682232 548.958423 -315.061297
v -27.090259 548.958423 -307.653247
v -31.846517 548.958423 -298.318581
v -33.485401 548.958423 -287.971014
v -31.846517 548.958423 -277.623448
v -27.090259 548.958423 -268.288802
v -19.682228 548.958423 -260.880773
v -10.347557 548.958423 -256.124515
v -0.000001 548.958423 -254.485603
v 10.347554 548.958423 -256.124515
v 19.682225 548.958423 -260.880773
v 27.090252 548.958423 -268.288802
v 31.846510 548.958423 -277.623448
v 33.485394 548.958423 -287.971014
v 31.846525 500.934052 -298.318581
v 33.485394 500.934052 -287.971014
v 31.846510 500.934052 -277.623448
v 27.090252 500.934052 -268.288802
v 19.682225 500.934052 -260.880773
v 10.347554 500.934052 -256.124515
v -0.000001 500.934052 -254.485603
v -10.347557 500.934052 -256.124515
v -19.682228 500.934052 -260.880773
v -27.090259 500.934052 -268.288802
v -31.846517 500.934052 -277.623448
v -33.485401 500.934052 -287.971014
v -31.846517 500.934052 -298.318581
v -27.090259 500.934052 -307.653247
v -19.682232 500.934052 -315.061297
v -10.347560 500.934052 -319.817473
v 0.000000 500.934052 -321.456426
v 10.347560 500.934052 -319.817473
v 19.682232 500.934052 -315.061297
v 27.090275 500.934052 -307.653247
v 40.132386 512.547916 -301.010819
v 42.197663 512.547916 -287.971014
v 40.132358 512.547916 -274.931189
v 34.138624 512.547916 -263.167851
v 24.803163 512.547916 -253.832368
v 13.039791 512.547916 -247.838638
v -0.000000 512.547916 -245.773331
v -13.039795 512.547916 -247.838638
v -24.803163 512.547916 -253.832368
v -34.138626 512.547916 -263.167851
v -40.132366 512.547916 -274.931189
v -42.197671 512.547916 -287.971014
v -40.132366 512.547916 -301.010819
v -34.138626 512.547916 -312.774177
v -24.803171 512.547916 -322.109559
v -13.039798 512.547916 -328.103431
v 0.000001 512.547916 -330.168677
v 13.039800 512.547916 -328.103431
v 24.803178 512.547916 -322.109559
v 34.138649 512.547916 -312.774177
v 26.546150 534.634819 -296.596343
v 22.581506 534.634819 -304.377425
v -0.000001 534.634819 -287.971014
v 16.406420 534.634819 -310.552500
v 8.625364 534.634819 -314.517159
v -0.000001 534.634819 -315.883287
v -8.625366 534.634819 -314.517159
v -16.406420 534.634819 -310.552500
v -22.581494 534.634819 -304.377425
v -26.546145 534.634819 -296.596343
v -27.912260 534.634819 -287.971014
v -26.546145 534.634819 -279.345644
v -22.581494 534.634819 -271.564583
v -16.406416 534.634819 -265.389528
v -8.625364 534.634819 -261.424870
v -0.000001 534.634819 -260.058762
v 8.625358 534.634819 -261.424870
v 16.406412 534.634819 -265.389528
v 22.581486 534.634819 -271.564583
v 26.546137 534.634819 -279.345644
v 27.912252 534.634819 -287.971014
v 38.475384 549.796943 -300.472425
v 40.132386 548.272946 -301.010819
v 42.197663 548.272946 -287.971014
v 40.455392 549.796943 -287.971014
v 40.132358 548.272946 -274.931189
v 38.475361 549.796943 -275.469543
v 34.138624 548.272946 -263.167851
v 32.729096 549.796943 -264.191931
v 24.803163 548.272946 -253.832368
v 23.779081 549.796943 -255.241906
v 13.039792 548.272946 -247.838638
v 12.501400 549.796943 -249.495638
v -0.000000 548.272946 -245.773331
v -0.000000 549.796943 -247.515618
v -13.039795 548.272946 -247.838638
v -12.501403 549.796943 -249.495638
v -24.803163 548.272946 -253.832368
v -23.779081 549.796943 -255.241906
v -34.138626 548.272946 -263.167851
v -32.729104 549.796943 -264.191931
v -40.132366 548.272946 -274.931189
v -38.475369 549.796943 -275.469543
v -42.197671 548.272946 -287.971014
v -40.455399 549.796943 -287.971014
v -40.132366 548.272946 -301.010819
v -38.475369 549.796943 -300.472425
v -34.138626 548.272946 -312.774177
v -32.729096 549.796943 -311.750097
v -24.803171 548.272946 -322.109559
v -23.779088 549.796943 -320.700102
v -13.039798 548.272946 -328.103431
v -12.501406 549.796943 -326.446350
v 0.000001 548.272946 -330.168677
v 0.000001 549.796943 -328.426329
v 13.039800 548.272946 -328.103431
v 12.501406 549.796943 -326.446350
v 24.803178 548.272946 -322.109559
v 23.779096 549.796943 -320.700102
v 34.138649 548.272946 -312.774177
v 32.729119 549.796943 -311.750097
vt 0.071489 0.000009
vt 0.089331 0.000011
vt 0.089208 0.999998
vt 0.071366 0.999996
vt 0.107172 0.000013
vt 0.107049 1.000000
vt 0.053647 0.000007
vt 0.053525 0.999993
vt 0.035806 0.000005
vt 0.035683 0.999991
vt 0.017964 0.000002
vt 0.017842 0.999989
vt 0.000123 0.000000
vt 0.000000 0.999987
vt 0.126752 0.000004
vt 0.144593 0.000003
vt 0.144637 0.999990
vt 0.126795 0.999991
vt 0.162435 0.000003
vt 0.162478 0.999989
vt 0.108910 0.000005
vt 0.108953 0.999991
vt 0.180276 0.000002
vt 0.180320 0.999988
vt 0.198118 0.000001
vt 0.198161 0.999988
vt 0.215959 0.000000
vt 0.216003 0.999987
vt 0.757212 0.000540
vt 0.779695 0.000360
vt 0.780182 0.061198
vt 0.757700 0.061378
vt 0.802178 0.000180
vt 0.802665 0.061018
vt 0.734729 0.000721
vt 0.735217 0.061558
vt 0.824661 0.000000
vt 0.825148 0.060838
vt 0.712246 0.000901
vt 0.712734 0.061738
vt 0.689764 0.001081
vt 0.690251 0.061919
vt 0.917651 0.000015
vt 0.940134 0.000008
vt 0.940155 0.060848
vt 0.917671 0.060855
vt 0.962618 0.000000
vt 0.962638 0.060840
vt 0.895167 0.000023
vt 0.895187 0.060863
vt 0.872683 0.000031
vt 0.872704 0.060870
vt 0.850200 0.000038
vt 0.850220 0.060878
vt 0.827716 0.000046
vt 0.827737 0.060885
vt 0.465977 0.122720
vt 0.452785 0.126896
vt 0.446198 0.083165
vt 0.477216 0.144028
vt 0.456890 0.150634
vt 0.438949 0.126791
vt 0.477232 0.114672
vt 0.482615 0.154620
vt 0.458751 0.162376
vt 0.435517 0.150636
vt 0.494506 0.131464
vt 0.425822 0.122416
vt 0.485450 0.103540
vt 0.502914 0.139869
vt 0.484428 0.158185
vt 0.459373 0.166327
vt 0.433659 0.162378
vt 0.415189 0.144033
vt 0.507067 0.114171
vt 0.414690 0.114198
vt 0.489824 0.090413
vt 0.517661 0.119566
vt 0.505740 0.142699
vt 0.433030 0.166328
vt 0.409794 0.154626
vt 0.397897 0.131472
vt 0.513670 0.093844
vt 0.406642 0.102943
vt 0.489929 0.076576
vt 0.525412 0.095700
vt 0.521224 0.121385
vt 0.407975 0.158189
vt 0.389493 0.139879
vt 0.385334 0.114182
vt 0.513667 0.072471
vt 0.402466 0.089752
vt 0.485752 0.063385
vt 0.525408 0.070608
vt 0.529362 0.096329
vt 0.386662 0.142705
vt 0.374742 0.119581
vt 0.378727 0.093856
vt 0.507060 0.052145
vt 0.402571 0.075916
vt 0.477704 0.052130
vt 0.517651 0.046745
vt 0.529359 0.069985
vt 0.371177 0.121394
vt 0.366986 0.095718
vt 0.378726 0.072484
vt 0.494495 0.034855
vt 0.406946 0.062789
vt 0.466572 0.043913
vt 0.502899 0.026447
vt 0.521216 0.044931
vt 0.363035 0.096340
vt 0.366983 0.070626
vt 0.385328 0.052157
vt 0.477203 0.022295
vt 0.415163 0.051657
vt 0.453445 0.039538
vt 0.482598 0.011701
vt 0.505730 0.023621
vt 0.363033 0.069997
vt 0.374735 0.046762
vt 0.397889 0.034865
vt 0.456876 0.015693
vt 0.426418 0.043609
vt 0.439609 0.039433
vt 0.458733 0.003950
vt 0.484416 0.008139
vt 0.371172 0.044943
vt 0.389481 0.026461
vt 0.415178 0.022301
vt 0.435504 0.015695
vt 0.433641 0.003953
vt 0.459362 0.000000
vt 0.386655 0.023630
vt 0.409779 0.011710
vt 0.433019 0.000002
vt 0.407966 0.008145
vt 0.634707 0.129453
vt 0.648935 0.119201
vt 0.666306 0.136263
vt 0.645951 0.151050
vt 0.659298 0.105052
vt 0.681093 0.115904
vt 0.618007 0.134805
vt 0.622028 0.158818
vt 0.664781 0.088392
vt 0.688862 0.091977
vt 0.600467 0.134740
vt 0.596882 0.158820
vt 0.664846 0.070855
vt 0.688857 0.066817
vt 0.583808 0.129257
vt 0.572955 0.151052
vt 0.659487 0.054157
vt 0.681072 0.042893
vt 0.569660 0.118894
vt 0.552600 0.136267
vt 0.649230 0.039934
vt 0.666276 0.022553
vt 0.559407 0.104665
vt 0.537817 0.115918
vt 0.635077 0.029576
vt 0.645935 0.007784
vt 0.554047 0.087965
vt 0.530039 0.092006
vt 0.618422 0.024087
vt 0.622023 0.000006
vt 0.554112 0.070428
vt 0.530029 0.066849
vt 0.600886 0.024015
vt 0.596867 0.000000
vt 0.559594 0.053769
vt 0.537798 0.042917
vt 0.584186 0.029367
vt 0.572938 0.007774
vt 0.569957 0.039621
vt 0.552586 0.022561
vt 0.361903 0.999987
vt 0.344062 0.999989
vt 0.343951 0.000002
vt 0.361793 0.000000
vt 0.326220 0.999991
vt 0.326110 0.000004
vt 0.308378 0.999993
vt 0.308268 0.000006
vt 0.290537 0.999995
vt 0.290427 0.000008
vt 0.217820 0.000008
vt 0.235662 0.000006
vt 0.235772 0.999993
vt 0.217930 0.999995
vt 0.253503 0.000004
vt 0.253613 0.999991
vt 0.271345 0.000002
vt 0.271455 0.999989
vt 0.289186 0.000000
vt 0.289297 0.999987
vt 0.884276 0.060891
vt 0.906760 0.060886
vt 0.906772 0.121726
vt 0.884289 0.121731
vt 0.861792 0.060896
vt 0.861805 0.121735
vt 0.839309 0.060900
vt 0.839322 0.121740
vt 0.816825 0.060905
vt 0.816838 0.121745
vt 0.930080 0.121694
vt 0.907596 0.121699
vt 0.907584 0.060859
vt 0.930067 0.060855
vt 0.952564 0.121690
vt 0.952551 0.060850
vt 0.975047 0.121685
vt 0.975034 0.060845
vt 0.997531 0.121680
vt 0.997518 0.060840
vn 0.951057 -0.000000 -0.309016
vn 0.809017 -0.000000 -0.587785
vn 0.808886 -0.017976 -0.587690
vn 0.950903 -0.017976 -0.308966
vn 0.587783 0.000000 -0.809019
vn 0.587688 -0.017976 -0.808888
vn 0.309016 0.000000 -0.951057
vn 0.308966 -0.017976 -0.950903
vn 0.000000 0.000000 -1.000000
vn -0.000000 -0.017976 -0.999838
vn -0.309016 -0.000000 -0.951057
vn -0.308966 -0.017976 -0.950903
vn -0.587784 -0.000000 -0.809018
vn -0.587689 -0.017976 -0.808887
vn -0.809017 -0.000000 -0.587785
vn -0.808887 -0.017976 -0.587690
vn -0.951057 -0.000000 -0.309017
vn -0.950903 -0.017976 -0.308967
vn -1.000000 -0.000000 -0.000000
vn -0.999838 -0.017976 -0.000000
vn -0.951056 -0.000000 0.309017
vn -0.950903 -0.017976 0.308967
vn -0.809017 -0.000000 0.587786
vn -0.808886 -0.017976 0.587691
vn -0.587785 -0.000000 0.809017
vn -0.587690 -0.017976 0.808886
vn -0.309018 -0.000000 0.951056
vn -0.308968 -0.017976 0.950902
vn -0.000000 0.000000 1.000000
vn -0.000000 -0.017976 0.999838
vn 0.309018 -0.000000 0.951056
vn 0.308968 -0.017976 0.950902
vn 0.587785 -0.000000 0.809017
vn 0.587690 -0.017976 0.808886
vn 0.809017 -0.000000 0.587786
vn 0.808886 -0.017976 0.587691
vn 0.951056 -0.000000 0.309017
vn 0.950903 -0.017976 0.308967
vn 1.000000 -0.000000 0.000001
vn 0.999838 -0.017976 0.000001
vn -0.634297 0.745113 0.206095
vn -0.539565 0.745113 0.392017
vn 0.000000 1.000000 0.000000
vn -0.392016 0.745113 0.539565
vn -0.206095 0.745112 0.634297
vn 0.000000 0.745112 0.666940
vn 0.206096 0.745112 0.634297
vn 0.392016 0.745113 0.539564
vn 0.539565 0.745113 0.392017
vn 0.634297 0.745113 0.206095
vn 0.666939 0.745112 0.000001
vn 0.634297 0.745113 -0.206095
vn 0.539565 0.745112 -0.392017
vn 0.392017 0.745113 -0.539564
vn 0.206096 0.745112 -0.634297
vn -0.000000 0.745113 -0.666938
vn -0.206096 0.745112 -0.634297
vn -0.392017 0.745112 -0.539565
vn -0.539565 0.745112 -0.392018
vn -0.634296 0.745112 -0.206096
vn -0.666939 0.745113 -0.000001
vn 0.939676 -0.154243 -0.305318
vn 0.988033 -0.154243 0.000001
vn 0.939675 -0.154243 0.305319
vn 0.799335 -0.154243 0.580751
vn 0.580751 -0.154243 0.799335
vn 0.305319 -0.154243 0.939675
vn 0.000000 -0.154243 0.988033
vn -0.305319 -0.154243 0.939675
vn -0.580752 -0.154243 0.799335
vn -0.799335 -0.154243 0.580752
vn -0.939675 -0.154242 0.305319
vn -0.988033 -0.154242 -0.000000
vn -0.939675 -0.154242 -0.305319
vn -0.799335 -0.154242 -0.580753
vn -0.580753 -0.154243 -0.799335
vn -0.305321 -0.154242 -0.939675
vn 0.000000 -0.154244 -0.988033
vn 0.305321 -0.154242 -0.939675
vn 0.580752 -0.154243 -0.799335
vn 0.799334 -0.154242 -0.580753
vn -0.667655 0.712163 0.216935
vn -0.567942 0.712162 0.412634
vn -0.412633 0.712163 0.567942
vn -0.216936 0.712160 0.667658
vn -0.000000 0.712162 0.702015
vn 0.216936 0.712159 0.667659
vn 0.412633 0.712163 0.567942
vn 0.567943 0.712162 0.412634
vn 0.667655 0.712163 0.216935
vn 0.702015 0.712163 -0.000000
vn 0.667655 0.712163 -0.216934
vn 0.567942 0.712162 -0.412634
vn 0.412634 0.712162 -0.567942
vn 0.216935 0.712162 -0.667656
vn -0.000000 0.712164 -0.702014
vn -0.216935 0.712163 -0.667655
vn -0.412634 0.712163 -0.567941
vn -0.567942 0.712162 -0.412634
vn -0.667655 0.712163 -0.216934
vn -0.702015 0.712163 -0.000000
vn 0.125288 0.991285 -0.040709
vn 0.950241 0.041420 -0.308751
vn 0.808321 0.041420 -0.587283
vn 0.106576 0.991285 -0.077432
vn 0.131735 0.991285 0.000000
vn 0.999142 0.041420 0.000001
vn 0.125288 0.991285 0.040708
vn 0.950240 0.041420 0.308752
vn 0.106576 0.991285 0.077431
vn 0.808323 0.041420 0.587281
vn 0.077432 0.991285 0.106574
vn 0.587281 0.041420 0.808322
vn 0.040708 0.991285 0.125286
vn 0.308752 0.041420 0.950240
vn 0.000000 0.991285 0.131734
vn 0.000000 0.041420 0.999142
vn -0.040708 0.991285 0.125286
vn -0.308752 0.041420 0.950240
vn -0.077432 0.991285 0.106576
vn -0.587281 0.041420 0.808322
vn -0.106576 0.991285 0.077433
vn -0.808322 0.041420 0.587281
vn -0.125288 0.991285 0.040709
vn -0.950240 0.041420 0.308752
vn -0.131736 0.991285 0.000000
vn -0.999142 0.041420 0.000000
vn -0.125288 0.991285 -0.040708
vn -0.950240 0.041420 -0.308752
vn -0.106576 0.991285 -0.077432
vn -0.808322 0.041420 -0.587282
vn -0.077432 0.991285 -0.106577
vn -0.587282 0.041420 -0.808322
vn -0.040709 0.991285 -0.125287
vn -0.308754 0.041421 -0.950239
vn -0.000000 0.991285 -0.131735
vn 0.000000 0.041422 -0.999142
vn 0.040709 0.991285 -0.125289
vn 0.308754 0.041421 -0.950240
vn 0.077432 0.991285 -0.106576
vn 0.587282 0.041420 -0.808322
s 1
g Tubería
usemtl initialShadingGroup
f 1/1/1 2/2/2 60/3/3 41/4/4
f 2/2/2 3/5/5 59/6/6 60/3/3
f 3/178/5 4/179/7 58/180/8 59/181/6
f 4/179/7 5/182/9 57/183/10 58/180/8
f 5/182/9 6/184/11 56/185/12 57/183/10
f 6/184/11 7/186/13 55/187/14 56/185/12
f 7/21/13 8/15/15 54/18/16 55/22/14
f 8/15/15 9/16/17 53/17/18 54/18/16
f 9/16/17 10/19/19 52/20/20 53/17/18
f 10/19/19 11/23/21 51/24/22 52/20/20
f 11/23/21 12/25/23 50/26/24 51/24/22
f 12/25/23 13/27/25 49/28/26 50/26/24
f 13/188/25 14/189/27 48/190/28 49/191/26
f 14/189/27 15/192/29 47/193/30 48/190/28
f 15/192/29 16/194/31 46/195/32 47/193/30
f 16/194/31 17/196/33 45/197/34 46/195/32
f 17/13/33 18/11/35 44/12/36 45/14/34
f 18/11/35 19/9/37 43/10/38 44/12/36
f 19/9/37 20/7/39 42/8/40 43/10/38
f 20/7/39 1/1/1 41/4/4 42/8/40
f 81/57/41 82/58/42 83/59/43
f 82/58/42 84/62/44 83/59/43
f 84/62/44 85/68/45 83/59/43
f 85/68/45 86/76/46 83/59/43
f 86/76/46 87/84/47 83/59/43
f 87/84/47 88/92/48 83/59/43
f 88/92/48 89/100/49 83/59/43
f 89/100/49 90/108/50 83/59/43
f 90/108/50 91/116/51 83/59/43
f 91/116/51 92/124/52 83/59/43
f 92/124/52 93/125/53 83/59/43
f 93/125/53 94/117/54 83/59/43
f 94/117/54 95/109/55 83/59/43
f 95/109/55 96/101/56 83/59/43
f 96/101/56 97/93/57 83/59/43
f 97/93/57 98/85/58 83/59/43
f 98/85/58 99/77/59 83/59/43
f 99/77/59 100/69/60 83/59/43
f 100/69/60 101/63/61 83/59/43
f 101/63/61 81/57/41 83/59/43
f 42/138/40 41/139/4 61/140/62 62/141/63
f 43/144/38 42/138/40 62/141/63 63/145/64
f 44/148/36 43/144/38 63/145/64 64/149/65
f 45/152/34 44/148/36 64/149/65 65/153/66
f 46/156/32 45/152/34 65/153/66 66/157/67
f 47/160/30 46/156/32 66/157/67 67/161/68
f 48/164/28 47/160/30 67/161/68 68/165/69
f 49/168/26 48/164/28 68/165/69 69/169/70
f 50/172/24 49/168/26 69/169/70 70/173/71
f 51/176/22 50/172/24 70/173/71 71/177/72
f 52/174/20 51/176/22 71/177/72 72/175/73
f 53/170/18 52/174/20 72/175/73 73/171/74
f 54/166/16 53/170/18 73/171/74 74/167/75
f 55/162/14 54/166/16 74/167/75 75/163/76
f 56/158/12 55/162/14 75/163/76 76/159/77
f 57/154/10 56/158/12 76/159/77 77/155/78
f 58/150/8 57/154/10 77/155/78 78/151/79
f 59/146/6 58/150/8 78/151/79 79/147/80
f 60/142/3 59/146/6 79/147/80 80/143/81
f 41/139/4 60/142/3 80/143/81 61/140/62
f 21/60/82 22/61/83 82/58/42 81/57/41
f 22/61/83 23/66/84 84/62/44 82/58/42
f 23/66/84 24/74/85 85/68/45 84/62/44
f 24/74/85 25/82/86 86/76/46 85/68/45
f 25/82/86 26/90/87 87/84/47 86/76/46
f 26/90/87 27/98/88 88/92/48 87/84/47
f 27/98/88 28/106/89 89/100/49 88/92/48
f 28/106/89 29/114/90 90/108/50 89/100/49
f 29/114/90 30/122/91 91/116/51 90/108/50
f 30/122/91 31/130/92 92/124/52 91/116/51
f 31/130/92 32/131/93 93/125/53 92/124/52
f 32/131/93 33/123/94 94/117/54 93/125/53
f 33/123/94 34/115/95 95/109/55 94/117/54
f 34/115/95 35/107/96 96/101/56 95/109/55
f 35/107/96 36/99/97 97/93/57 96/101/56
f 36/99/97 37/91/98 98/85/58 97/93/57
f 37/91/98 38/83/99 99/77/59 98/85/58
f 38/83/99 39/75/100 100/69/60 99/77/59
f 39/75/100 40/67/101 101/63/61 100/69/60
f 40/67/101 21/60/82 81/57/41 101/63/61
f 102/64/102 103/71/103 140/72/104 141/65/105
f 103/71/103 102/64/102 105/70/106 104/79/107
f 104/79/107 105/70/106 107/78/108 106/87/109
f 106/87/109 107/78/108 109/86/110 108/95/111
f 108/95/111 109/86/110 111/94/112 110/103/113
f 110/103/113 111/94/112 113/102/114 112/111/115
f 112/111/115 113/102/114 115/110/116 114/119/117
f 114/119/117 115/110/116 117/118/118 116/127/119
f 116/127/119 117/118/118 119/126/120 118/133/121
f 118/133/121 119/126/120 121/132/122 120/136/123
f 120/136/123 121/132/122 123/135/124 122/137/125
f 122/137/125 123/135/124 125/129/126 124/134/127
f 124/134/127 125/129/126 127/121/128 126/128/129
f 126/128/129 127/121/128 129/113/130 128/120/131
f 128/120/131 129/113/130 131/105/132 130/112/133
f 130/112/133 131/105/132 133/97/134 132/104/135
f 132/104/135 133/97/134 135/89/136 134/96/137
f 134/96/137 135/89/136 137/81/138 136/88/139
f 136/88/139 137/81/138 139/73/140 138/80/141
f 138/80/141 139/73/140 141/65/105 140/72/104
f 62/29/63 61/30/62 103/31/103 104/32/107
f 63/35/64 62/29/63 104/32/107 106/36/109
f 64/39/65 63/35/64 106/36/109 108/40/111
f 65/41/66 64/39/65 108/40/111 110/42/113
f 66/198/67 65/199/66 110/200/113 112/201/115
f 67/202/68 66/198/67 112/201/115 114/203/117
f 68/204/69 67/202/68 114/203/117 116/205/119
f 69/206/70 68/204/69 116/205/119 118/207/121
f 70/44/71 69/47/70 118/48/121 120/45/123
f 71/43/72 70/44/71 120/45/123 122/46/125
f 72/49/73 71/43/72 122/46/125 124/50/127
f 73/51/74 72/49/73 124/50/127 126/52/129
f 74/53/75 73/51/74 126/52/129 128/54/131
f 75/55/76 74/53/75 128/54/131 130/56/133
f 76/208/77 75/209/76 130/210/133 132/211/135
f 77/212/78 76/208/77 132/211/135 134/213/137
f 78/214/79 77/212/78 134/213/137 136/215/139
f 79/216/80 78/214/79 136/215/139 138/217/141
f 80/33/81 79/37/80 138/38/141 140/34/104
f 61/30/62 80/33/81 140/34/104 103/31/103
f 21/60/82 40/67/101 105/70/106 102/64/102
f 40/67/101 39/75/100 107/78/108 105/70/106
f 39/75/100 38/83/99 109/86/110 107/78/108
f 38/83/99 37/91/98 111/94/112 109/86/110
f 37/91/98 36/99/97 113/102/114 111/94/112
f 36/99/97 35/107/96 115/110/116 113/102/114
f 35/107/96 34/115/95 117/118/118 115/110/116
f 34/115/95 33/123/94 119/126/120 117/118/118
f 33/123/94 32/131/93 121/132/122 119/126/120
f 32/131/93 31/130/92 123/135/124 121/132/122
f 31/130/92 30/122/91 125/129/126 123/135/124
f 30/122/91 29/114/90 127/121/128 125/129/126
f 29/114/90 28/106/89 129/113/130 127/121/128
f 28/106/89 27/98/88 131/105/132 129/113/130
f 27/98/88 26/90/87 133/97/134 131/105/132
f 26/90/87 25/82/86 135/89/136 133/97/134
f 25/82/86 24/74/85 137/81/138 135/89/136
f 24/74/85 23/66/84 139/73/140 137/81/138
f 23/66/84 22/61/83 141/65/105 139/73/140
f 22/61/83 21/60/82 102/64/102 141/65/105
