# This file uses meters as units for non-parametric coordinates.

mtllib MuroDestructibleLow.mtl
g default
v 301.688843 912.596802 -82.751511
v 472.175842 835.361816 -82.751511
v 301.688843 914.131897 -47.042213
v 472.175842 836.897156 -47.042206
v 301.688843 1102.737183 -47.042213
v 327.259369 1128.307617 -47.042213
v 301.688843 1102.737183 -82.751511
v 327.259369 1128.307617 -82.751511
v 472.175842 1102.737183 -47.042206
v 446.605347 1128.307617 -47.042206
v 472.175842 1102.737183 -82.751511
v 446.605347 1128.307617 -82.751511
vt 0.870444 0.001738
vt 0.910472 0.000019
vt 0.910463 0.299728
vt 0.870435 0.299726
vt 0.915200 0.244164
vt 0.955228 0.245879
vt 0.955256 0.457293
vt 0.915228 0.457298
vt 0.552854 0.870051
vt 0.552849 0.830023
vt 0.686627 0.830004
vt 0.686633 0.870032
vt 0.512313 0.830029
vt 0.512319 0.870057
vt 0.727162 0.829998
vt 0.727168 0.870026
vt 0.741826 0.907929
vt 0.951626 0.907943
vt 0.950913 0.948001
vt 0.741113 0.947988
vt 0.370057 0.829985
vt 0.283513 0.638867
vt 0.581501 0.638915
vt 0.581471 0.830019
vt 0.610160 0.667582
vt 0.610138 0.801361
vt 0.416641 0.638888
vt 0.416626 0.447784
vt 0.716335 0.447760
vt 0.629775 0.638871
vt 0.387976 0.610227
vt 0.387965 0.476449
vn -0.119374 0.676535 -0.726671
vn -0.119374 0.676535 0.726671
vn 0.119374 0.676535 0.726671
vn 0.119374 0.676535 -0.726671
vn -0.190504 -0.118531 0.974504
vn 0.233085 -0.205248 0.950550
vn 0.248886 0.021782 0.968288
vn -0.185754 0.022098 0.982348
vn 0.221105 -0.203716 -0.953736
vn 0.247390 0.021651 -0.968674
vn -0.185274 -0.121782 -0.975112
vn -0.184605 0.021961 -0.982567
s 1
g pCube1 Muro_destructible
usemtl initialShadingGroup
f 8/9/1 6/10/2 10/11/3 12/12/4
f 3/21/5 4/22/6 9/23/7 5/24/8
f 4/1/6 2/2/9 11/3/10 9/4/7
f 1/5/11 3/6/5 5/7/8 7/8/12
f 1/17/11 2/18/9 4/19/6 3/20/5
f 7/27/12 11/28/10 2/29/9 1/30/11
f 5/13/8 6/10/2 8/9/1 7/14/12
f 10/11/3 9/15/7 11/16/10 12/12/4
f 5/24/8 9/23/7 10/25/3 6/26/2
f 7/27/12 8/31/1 12/32/4 11/28/10
g default
v 301.688721 224.190262 -47.042191
v 472.175812 318.541443 -47.042191
v 301.688721 228.431290 -82.751495
v 472.175812 322.782410 -82.751495
v 301.688721 459.129303 -82.751495
v 301.688721 463.243530 -47.042191
v 472.175812 455.890442 -47.042198
v 472.175812 450.913361 -82.751495
v 387.512909 506.213257 -82.751495
v 388.231018 510.721313 -47.042191
v 345.046509 248.185379 -47.042198
v 341.222656 250.310135 -82.751495
v 413.155884 145.805145 -47.042191
v 412.538208 143.110382 -82.751495
v 411.828430 285.143921 -47.042198
v 415.993622 291.689972 -82.751495
v 415.908630 364.455688 -82.751495
v 411.731262 368.263153 -47.042198
vt 0.959966 0.000016
vt 0.999994 0.004768
vt 1.000000 0.148394
vt 0.959973 0.153975
vt 0.407639 0.423355
vt 0.402887 0.383327
vt 0.670849 0.383341
vt 0.666236 0.423368
vt 0.984918 0.988206
vt 0.828722 0.988355
vt 0.825670 0.948324
vt 0.992262 0.947908
vt 0.273565 0.938883
vt 0.280800 0.825763
vt 0.321150 0.826249
vt 0.313977 0.938411
vt 0.273592 0.716270
vt 0.313882 0.715841
vt 0.388008 0.077327
vt 0.387965 0.000013
vt 0.428213 0.007629
vt 0.428252 0.079607
vt 0.511675 0.910143
vt 0.373844 0.908945
vt 0.369835 0.868818
vt 0.514154 0.870072
vt 0.318331 0.910896
vt 0.319218 0.870597
vt 0.000000 0.054633
vt 0.130047 0.158277
vt 0.131709 0.239825
vt 0.048803 0.287811
vt 0.004967 0.313182
vt 0.095171 0.000017
vt 0.194005 0.203769
vt 0.131036 0.406416
vt 0.191246 0.060170
vt 0.355808 0.530102
vt 0.249360 0.406736
vt 0.409041 0.433102
vt 0.087846 0.530062
vt 0.114750 0.481465
vt 0.156189 0.406614
vt 0.193635 0.338974
vt 0.347594 0.338997
vt 0.000000 0.405102
vn -0.566545 0.158288 -0.808685
vn -0.000000 0.000000 -1.000000
vn 0.203329 -0.082378 -0.975639
vn -0.065634 -0.096241 -0.993192
vn -0.561541 -0.105429 -0.820705
vn -0.539342 0.180423 0.822531
vn 0.000000 -0.000000 1.000000
vn 0.026533 0.521823 0.852641
vn 0.606760 -0.234610 0.759474
vn 0.650313 -0.210080 -0.730041
vn 0.481553 0.196302 -0.854150
vn 0.442628 0.218797 0.869603
vn 0.020820 0.509224 -0.860382
vn -0.503872 -0.103148 0.857597
vn -0.079694 -0.101160 0.991673
vn 0.230484 -0.064096 0.970963
vn 0.398082 -0.760740 -0.512646
vn 0.403153 -0.694024 0.596489
s 1
g Muro_destructible polySurface1
usemtl initialShadingGroup
f 17/61/13 29/62/14 28/63/15 24/64/16 15/65/17
f 18/70/18 30/71/19 22/72/20
f 14/33/21 16/34/22 20/35/23 19/36/24
f 17/61/13 21/66/25 29/62/14
f 13/73/26 23/74/27 27/75/28 30/71/19 18/70/18
f 26/68/29 24/64/16 28/63/15
f 15/37/17 13/38/26 18/39/18 17/40/13
f 23/74/27 25/78/30 27/75/28
f 28/63/15 29/62/14 16/67/22
f 22/72/20 30/71/19 14/76/21 19/77/24
f 29/62/14 21/66/25 20/69/23 16/67/22
f 30/71/19 27/75/28 14/76/21
f 20/45/23 21/46/25 22/47/20 19/48/24
f 21/46/25 17/49/13 18/50/18 22/47/20
f 14/51/21 27/52/28 28/53/15 16/54/22
f 27/41/28 25/42/30 26/43/29 28/44/15
f 25/55/30 23/56/27 24/57/16 26/58/29
f 23/56/27 13/59/26 15/60/17 24/57/16
g default
v 301.688782 -13.840748 -47.042198
v 472.175690 -13.840748 -47.042198
v 301.688782 -13.840748 -82.751495
v 472.175690 -13.840748 -82.751495
v 301.688782 224.190292 -47.042198
v 472.175690 318.541473 -47.042198
v 301.688782 228.431320 -82.751495
v 472.175690 322.782440 -82.751495
v 301.688782 191.491638 -47.042198
v 472.175690 121.615044 -47.042191
v 301.688782 188.543686 -82.751503
v 472.175690 118.667053 -82.751495
v 345.046570 248.185410 -47.042198
v 341.222534 250.310165 -82.751495
v 413.155884 145.805176 -47.042191
v 412.538147 143.110413 -82.751495
v 412.177795 -13.840748 -47.042198
v 416.350586 -13.840748 -82.751495
v 411.828461 285.143951 -47.042198
v 415.993530 291.690002 -82.751495
vt 0.825694 0.000021
vt 0.865722 0.000023
vt 0.865712 0.148555
vt 0.825684 0.151857
vt 0.865697 0.377355
vt 0.825670 0.372598
vt 0.870435 0.555863
vt 0.910463 0.555857
vt 0.910498 0.786020
vt 0.870470 0.782722
vt 0.910503 0.822673
vt 0.870476 0.827433
vt 0.659501 0.950272
vt 0.815697 0.950002
vt 0.823149 0.990280
vt 0.656557 0.990311
vt 0.995046 0.650776
vt 0.995028 0.779304
vt 0.955001 0.774621
vt 0.955018 0.650771
vt 0.995019 0.841880
vt 0.954992 0.841875
vt 0.957083 0.457292
vt 0.955343 0.512812
vt 0.915200 0.508955
vt 0.916788 0.458332
vt 0.957061 0.650638
vt 0.916999 0.653268
vt 0.726192 0.000023
vt 0.803505 0.000021
vt 0.805808 0.040264
vt 0.733831 0.040266
vt 0.000000 0.721198
vt 0.000003 0.597348
vt 0.178955 0.596255
vt 0.230163 0.721203
vt 0.000004 0.530094
vt 0.151841 0.530098
vt 0.293714 0.672604
vt 0.266816 0.721204
vt 0.335144 0.597747
vt 0.372582 0.530103
vt 0.373045 0.105760
vt 0.417360 0.081236
vt 0.497299 0.201400
vt 0.373045 0.150471
vt 0.501572 0.377331
vt 0.373044 0.377330
vt 0.564148 0.228799
vt 0.564148 0.377331
vt 0.501173 0.034852
vt 0.564149 0.000000
vn -0.332351 -0.183532 0.925126
vn -0.000000 -0.209463 0.977817
vn -0.033114 0.057005 0.997825
vn -0.361514 -0.000000 0.932367
vn -0.333029 -0.183907 -0.924808
vn -0.000000 -0.205089 -0.978743
vn 0.468317 -0.202423 0.860060
vn 0.486808 -0.210415 -0.847787
vn 0.547325 -0.000000 -0.836920
vn 0.546103 -0.000000 0.837718
vn -0.380810 0.000000 -0.924653
vn -0.290302 0.217491 -0.931892
vn 0.367501 0.538880 -0.757992
vn -0.027322 0.052213 -0.998262
vn 0.445417 0.565392 0.694216
vn -0.307916 0.201181 0.929900
vn 0.619844 0.225458 -0.751640
vn 0.661009 0.219077 0.717685
vn -0.389415 0.157769 -0.907450
vn -0.452724 0.125900 0.882717
s 1
g Muro_destructible polySurface3
usemtl initialShadingGroup
f 31/111/31 47/112/32 45/113/33 39/114/34
f 33/95/35 48/96/36 47/97/32 31/98/31
f 32/79/37 34/80/38 42/81/39 40/82/40
f 33/85/35 31/86/31 39/87/34 41/88/41
f 37/121/42 44/122/43 46/123/44 41/124/41
f 39/114/34 45/113/33 43/117/45 35/118/46
f 40/82/40 42/81/39 38/83/47 36/84/48
f 41/88/41 39/87/34 35/89/46 37/90/42
f 41/124/41 46/123/44 48/125/36 33/126/35
f 45/113/33 47/112/32 32/115/37 40/116/40
f 47/97/32 48/96/36 34/99/38 32/100/37
f 48/125/36 46/123/44 42/127/39 34/128/38
f 46/123/44 50/129/49 38/130/47 42/127/39
f 49/119/50 45/113/33 40/116/40 36/120/48
f 35/101/46 43/102/45 44/103/43 37/104/42
f 43/102/45 45/105/33 46/106/44 44/103/43
f 45/91/33 49/92/50 50/93/49 46/94/44
f 49/107/50 36/108/48 38/109/47 50/110/49
g default
v 301.688873 459.129333 -82.751495
v 472.175751 552.659973 -82.751495
v 301.688873 463.243561 -47.042198
v 472.175751 556.774109 -47.042198
v 301.688873 664.588135 -82.751495
v 472.175751 605.199219 -82.751495
v 301.688873 664.118530 -47.042198
v 472.175751 604.729797 -47.042198
v 472.175751 455.890472 -47.042198
v 472.175751 450.913391 -82.751495
v 301.688873 567.248718 -47.042198
v 387.512878 506.213287 -82.751495
v 388.230957 510.721313 -47.042191
v 301.688873 562.271606 -82.751495
v 415.604279 624.905884 -82.751495
v 411.430237 625.890381 -47.042198
vt 0.118661 0.952346
vt 0.114051 0.912318
vt 0.172944 0.912321
vt 0.172416 0.952348
vt 0.005577 0.952340
vt 0.000000 0.912312
vt 0.203951 0.721201
vt 0.243979 0.725816
vt 0.243968 0.842399
vt 0.203941 0.836816
vt 0.243958 0.950983
vt 0.203931 0.951506
vt 0.149646 0.229664
vt 0.259138 0.236871
vt 0.259626 0.277221
vt 0.149217 0.269954
vt 0.372259 0.229635
vt 0.371787 0.270047
vt 0.739550 0.950128
vt 0.672400 0.950187
vt 0.667583 0.910160
vt 0.739688 0.910097
vt 0.537183 0.950306
vt 0.537321 0.910275
vt 0.721263 0.382655
vt 0.818260 0.435893
vt 0.721239 0.499238
vt 0.844239 0.564995
vt 0.721218 0.607822
vt 0.912346 0.487534
vt 0.912335 0.541289
vt 0.912368 0.374451
vt 0.586922 0.383337
vt 0.630792 0.255434
vt 0.763987 0.286286
vt 0.701610 0.382788
vt 0.652578 0.191917
vt 0.711471 0.191635
vt 0.817224 0.382236
vt 0.825520 0.191090
vn -0.428687 -0.614822 0.661984
vn -0.015490 -0.304636 0.952343
vn -0.376290 0.000000 0.926502
vn 0.449983 0.000000 0.893037
vn 0.461470 0.000000 -0.887156
vn 0.321886 0.269257 -0.907684
vn 0.327606 0.269743 0.905490
vn -0.410788 -0.677981 -0.609587
vn -0.360282 0.000000 -0.932843
vn -0.209487 0.389943 -0.896694
vn 0.109285 0.313724 -0.943204
vn -0.013961 -0.341452 -0.939796
vn 0.389685 -0.655440 0.646950
vn 0.360918 -0.724687 -0.586998
vn 0.117571 0.337509 0.933951
vn -0.223651 0.408696 0.884844
s 1
g Muro_destructible polySurface4
usemtl initialShadingGroup
f 53/155/51 63/156/52 61/157/53
f 54/131/54 52/132/55 56/133/56 58/134/57
f 51/137/58 53/138/51 61/139/53 64/140/59
f 55/163/60 65/164/61 62/165/62 64/166/59
f 59/135/63 60/136/64 52/132/55 54/131/54
f 60/170/64 62/165/62 52/168/55
f 61/157/53 63/156/52 66/158/65 57/159/66
f 64/140/59 61/139/53 57/141/66 55/142/60
f 64/166/59 62/165/62 51/169/58
f 62/165/62 65/164/61 56/167/56 52/168/55
f 63/156/52 59/162/63 54/160/54
f 66/158/65 63/156/52 54/160/54 58/161/57
f 51/143/58 62/144/62 63/145/52 53/146/51
f 62/144/62 60/147/64 59/148/63 63/145/52
f 56/149/56 65/150/61 66/151/65 58/152/57
f 65/150/61 55/153/60 57/154/66 66/151/65
g default
v 301.688904 694.980469 -82.751511
v 472.175781 787.056763 -82.751511
v 301.688904 700.889648 -47.042213
v 472.175781 792.965942 -47.042206
v 301.688904 912.596802 -82.751511
v 472.175781 835.361816 -82.751511
v 301.688904 914.131897 -47.042213
v 472.175781 836.897156 -47.042206
vt 0.432731 0.006640
vt 0.472758 0.000014
vt 0.472761 0.054160
vt 0.432734 0.055884
vt 0.915200 0.000014
vt 0.955228 0.006637
vt 0.955236 0.245667
vt 0.915209 0.243947
vt 0.737748 0.910097
vt 0.527948 0.910113
vt 0.527235 0.870055
vt 0.737035 0.870038
vt 0.149217 0.277242
vt 0.366412 0.277201
vt 0.369567 0.317650
vt 0.152373 0.317691
vt 0.651614 0.590633
vt 0.842705 0.693869
vt 0.842698 0.743113
vt 0.651583 0.829663
vt 0.567026 0.191118
vt 0.653616 0.000021
vt 0.707762 0.000025
vt 0.810959 0.191136
vn -0.280097 -0.354683 0.892046
vn 0.160798 -0.188207 0.968877
vn 0.153467 0.215181 0.964440
vn -0.271773 0.343994 0.898781
vn 0.164913 -0.213913 -0.962832
vn 0.147248 0.200581 -0.968548
vn -0.233549 -0.359047 -0.903626
vn -0.274894 0.330933 -0.902727
s 1
g Muro_destructible polySurface5
usemtl initialShadingGroup
f 69/187/67 70/188/68 74/189/69 73/190/70
f 70/171/68 68/172/71 72/173/72 74/174/69
f 67/175/73 69/176/67 73/177/70 71/178/74
f 71/191/74 72/192/72 68/193/71 67/194/73
f 72/179/72 71/180/74 73/181/70 74/182/69
f 67/183/73 68/184/71 70/185/68 69/186/67
g default
v 301.688782 664.588135 -82.751495
v 472.175842 605.199219 -82.751495
v 301.688782 664.118530 -47.042198
v 472.175842 604.729797 -47.042206
v 301.688782 694.980469 -82.751495
v 472.175842 787.056763 -82.751495
v 301.688782 700.889648 -47.042198
v 472.175842 792.965942 -47.042206
vt 0.741113 0.907929
vt 0.741633 0.867902
vt 0.945482 0.867867
vt 0.952113 0.907893
vt 0.567026 0.000548
vt 0.607054 0.000020
vt 0.607055 0.041238
vt 0.567027 0.034615
vt 0.948360 0.867866
vt 0.731166 0.867890
vt 0.734309 0.827440
vt 0.951503 0.827416
vt 0.333252 0.910371
vt 0.535620 0.910358
vt 0.535795 0.950388
vt 0.333428 0.950401
vt 0.281853 0.191138
vt 0.240635 0.191133
vt 0.174087 0.000021
vt 0.385087 0.000045
vt 0.137256 0.912319
vt 0.103188 0.912315
vt 0.000000 0.721198
vt 0.203850 0.721223
vn 0.264364 -0.361677 0.894037
vn 0.279906 -0.376657 -0.883053
vn 0.250208 0.415512 -0.874498
vn 0.202838 0.420334 0.884407
vn -0.143930 -0.262876 -0.954034
vn -0.136949 -0.252145 0.957950
vn -0.178088 0.251474 0.951339
vn -0.172417 0.224230 -0.959163
s 1
g Muro_destructible polySurface2
usemtl initialShadingGroup
f 78/195/75 76/196/76 80/197/77 82/198/78
f 75/199/79 77/200/80 81/201/81 79/202/82
f 81/211/81 77/212/80 78/213/75 82/214/78
f 75/215/79 79/216/82 80/217/77 76/218/76
f 80/203/77 79/204/82 81/205/81 82/206/78
f 75/207/79 76/208/76 78/209/75 77/210/80
